<svg xmlns="http://www.w3.org/2000/svg" viewBox="0 0 400 380" fill="none">
  <defs>
    <radialGradient id="cl-rim" cx="50%" cy="45%" r="55%">
      <stop offset="0%" stop-color="#f0d4b0"/>
      <stop offset="100%" stop-color="#b87840"/>
    </radialGradient>
    <radialGradient id="cl-inner" cx="44%" cy="38%" r="52%">
      <stop offset="0%" stop-color="#faf0e0"/>
      <stop offset="100%" stop-color="#d4a060"/>
    </radialGradient>
  </defs>
  <ellipse cx="200" cy="340" rx="120" ry="20" fill="#2c1a0e" opacity="0.10"/>
  <path d="M58 155 C52 250 200 310 200 310 C200 310 348 250 342 155"
        fill="url(#cl-rim)" stroke="#9c6830" stroke-width="1.5" stroke-linejoin="round"/>
  <ellipse cx="200" cy="155" rx="142" ry="44" fill="url(#cl-inner)" stroke="#9c6830" stroke-width="1.5"/>
  <ellipse cx="200" cy="151" rx="118" ry="34" fill="#f5e8d0" opacity="0.45"/>
  <ellipse cx="200" cy="308" rx="36" ry="9" fill="#a87030" opacity="0.45"/>
  <path d="M80 195 Q200 220 320 195" stroke="#9c6830" stroke-width="0.8" fill="none" opacity="0.35"/>
  <path d="M68 228 Q200 258 332 228" stroke="#9c6830" stroke-width="0.8" fill="none" opacity="0.28"/>
  <path d="M72 265 Q200 298 328 265" stroke="#9c6830" stroke-width="0.8" fill="none" opacity="0.20"/>
  <path d="M172 147 C183 133 222 131 230 147 C220 141 188 140 172 147 Z" fill="#8c5820" opacity="0.38"/>
  <path d="M175 150 Q201 138 227 150" stroke="#8c5820" stroke-width="1.2" fill="none" opacity="0.5" stroke-linecap="round"/>
</svg>
